<?xml version="1.0"?>


<svg width="150.207mm" height="147.71964mm" viewBox="-3 -3 150.20699 147.71963" version="1.1" id="svg5" xml:space="preserve" xmlns:inkscape="http://www.inkscape.org/namespaces/inkscape" xmlns:sodipodi="http://sodipodi.sourceforge.net/DTD/sodipodi-0.dtd" xmlns:xlink="http://www.w3.org/1999/xlink" xmlns="http://www.w3.org/2000/svg" xmlns:svg="http://www.w3.org/2000/svg"><namedview id="namedview7" pagecolor="#ffffff" bordercolor="#000000" borderopacity="0.25" showgrid="false"></namedview><defs id="defs2"><linearGradient id="linearGradient2516"><stop style="stop-color:#1A1C21;stop-opacity:0.99095023;" offset="0" id="stop2514"></stop><stop style="stop-color:#1E50A2;stop-opacity:1;" offset="1" id="stop2512"></stop></linearGradient><linearGradient id="linearGradient2508"><stop style="stop-color:#1E50A2;stop-opacity:1;" offset="0" id="stop2504"></stop><stop style="stop-color:#1A1C21;stop-opacity:1;" offset="1" id="stop2506"></stop></linearGradient><linearGradient id="linearGradient1645"><stop style="stop-color:#000000;stop-opacity:1;" offset="0" id="stop1641"></stop><stop style="stop-color:#000000;stop-opacity:0;" offset="1" id="stop1643"></stop></linearGradient><clipPath clipPathUnits="userSpaceOnUse" id="clipPath1066"><ellipse style="fill:none;stroke:#000400;stroke-width:4.12401;stroke-dasharray:none;stroke-opacity:1" id="ellipse1068" cx="112.23838" cy="115.69186" rx="58.018604" ry="57.673256"></ellipse></clipPath><linearGradient xlink:href="#linearGradient1645" id="linearGradient1647" x1="38.713188" y1="196.77809" x2="158.66031" y2="196.77809" gradientUnits="userSpaceOnUse" gradientTransform="translate(-2.4513316,-5.5843063)"></linearGradient><linearGradient xlink:href="#linearGradient2508" id="linearGradient2510" x1="336.41882" y1="158.17314" x2="239.43402" y2="62.819012" gradientUnits="userSpaceOnUse"></linearGradient><linearGradient xlink:href="#linearGradient2516" id="linearGradient2518" x1="57.398994" y1="47.466766" x2="150.47794" y2="146.44675" gradientUnits="userSpaceOnUse"></linearGradient><linearGradient xlink:href="#linearGradient2508" id="linearGradient8805" gradientUnits="userSpaceOnUse" x1="336.41882" y1="158.17314" x2="239.43402" y2="62.819012"></linearGradient><linearGradient xlink:href="#linearGradient2508" id="linearGradient8807" gradientUnits="userSpaceOnUse" x1="336.41882" y1="158.17314" x2="239.43402" y2="62.819012"></linearGradient><linearGradient xlink:href="#linearGradient2508" id="linearGradient8809" gradientUnits="userSpaceOnUse" x1="336.41882" y1="158.17314" x2="239.43402" y2="62.819012"></linearGradient><linearGradient xlink:href="#linearGradient2508" id="linearGradient8811" gradientUnits="userSpaceOnUse" x1="336.41882" y1="158.17314" x2="239.43402" y2="62.819012"></linearGradient><linearGradient xlink:href="#linearGradient2508" id="linearGradient8813" gradientUnits="userSpaceOnUse" x1="336.41882" y1="158.17314" x2="239.43402" y2="62.819012"></linearGradient><linearGradient xlink:href="#linearGradient2508" id="linearGradient8815" gradientUnits="userSpaceOnUse" x1="336.41882" y1="158.17314" x2="239.43402" y2="62.819012"></linearGradient><linearGradient xlink:href="#linearGradient2508" id="linearGradient8817" gradientUnits="userSpaceOnUse" x1="336.41882" y1="158.17314" x2="239.43402" y2="62.819012"></linearGradient><linearGradient xlink:href="#linearGradient2508" id="linearGradient8819" gradientUnits="userSpaceOnUse" x1="336.41882" y1="158.17314" x2="239.43402" y2="62.819012"></linearGradient><linearGradient xlink:href="#linearGradient2508" id="linearGradient8821" gradientUnits="userSpaceOnUse" x1="336.41882" y1="158.17314" x2="239.43402" y2="62.819012"></linearGradient><linearGradient xlink:href="#linearGradient2508" id="linearGradient8823" gradientUnits="userSpaceOnUse" x1="336.41882" y1="158.17314" x2="239.43402" y2="62.819012"></linearGradient><linearGradient xlink:href="#linearGradient2508" id="linearGradient8825" gradientUnits="userSpaceOnUse" x1="336.41882" y1="158.17314" x2="239.43402" y2="62.819012"></linearGradient><linearGradient xlink:href="#linearGradient2508" id="linearGradient8827" gradientUnits="userSpaceOnUse" x1="336.41882" y1="158.17314" x2="239.43402" y2="62.819012"></linearGradient><linearGradient xlink:href="#linearGradient2508" id="linearGradient8829" gradientUnits="userSpaceOnUse" x1="336.41882" y1="158.17314" x2="239.43402" y2="62.819012"></linearGradient><linearGradient xlink:href="#linearGradient2508" id="linearGradient8831" gradientUnits="userSpaceOnUse" x1="336.41882" y1="158.17314" x2="239.43402" y2="62.819012"></linearGradient><linearGradient xlink:href="#linearGradient2508" id="linearGradient8833" gradientUnits="userSpaceOnUse" x1="336.41882" y1="158.17314" x2="239.43402" y2="62.819012"></linearGradient><linearGradient xlink:href="#linearGradient2508" id="linearGradient8835" gradientUnits="userSpaceOnUse" x1="336.41882" y1="158.17314" x2="239.43402" y2="62.819012"></linearGradient><linearGradient xlink:href="#linearGradient2508" id="linearGradient8837" gradientUnits="userSpaceOnUse" x1="336.41882" y1="158.17314" x2="239.43402" y2="62.819012"></linearGradient><linearGradient xlink:href="#linearGradient2508" id="linearGradient8839" gradientUnits="userSpaceOnUse" x1="336.41882" y1="158.17314" x2="239.43402" y2="62.819012"></linearGradient><linearGradient xlink:href="#linearGradient2508" id="linearGradient8841" gradientUnits="userSpaceOnUse" x1="336.41882" y1="158.17314" x2="239.43402" y2="62.819012"></linearGradient><linearGradient xlink:href="#linearGradient2508" id="linearGradient8843" gradientUnits="userSpaceOnUse" x1="336.41882" y1="158.17314" x2="239.43402" y2="62.819012"></linearGradient><linearGradient xlink:href="#linearGradient2508" id="linearGradient8845" gradientUnits="userSpaceOnUse" x1="336.41882" y1="158.17314" x2="239.43402" y2="62.819012"></linearGradient><linearGradient xlink:href="#linearGradient2508" id="linearGradient8847" gradientUnits="userSpaceOnUse" x1="336.41882" y1="158.17314" x2="239.43402" y2="62.819012"></linearGradient><linearGradient xlink:href="#linearGradient2508" id="linearGradient8849" gradientUnits="userSpaceOnUse" x1="336.41882" y1="158.17314" x2="239.43402" y2="62.819012"></linearGradient><linearGradient xlink:href="#linearGradient2508" id="linearGradient8851" gradientUnits="userSpaceOnUse" x1="336.41882" y1="158.17314" x2="239.43402" y2="62.819012"></linearGradient><linearGradient xlink:href="#linearGradient2508" id="linearGradient8853" gradientUnits="userSpaceOnUse" x1="336.41882" y1="158.17314" x2="239.43402" y2="62.819012"></linearGradient><linearGradient xlink:href="#linearGradient2508" id="linearGradient8855" gradientUnits="userSpaceOnUse" x1="336.41882" y1="158.17314" x2="239.43402" y2="62.819012"></linearGradient></defs><g id="layer4" transform="translate(1.0999999,1)"><rect style="fill:#ffffff;stroke-width:0.606758;stroke-linecap:round;stroke-linejoin:round" id="rect11667" width="150.207" height="147.71964" x="-4.0999999" y="-4"></rect></g><g id="layer2" transform="translate(-29.482486,-28.21524)"><g id="layer1" transform="translate(-1.0625e-6)"><g id="g1356" transform="translate(-186.49125,-11.166029)" style="stroke:url(#linearGradient2510);stroke-opacity:1"><path style="fill:none;stroke:url(#linearGradient8805);stroke-width:1.424;stroke-linejoin:round;stroke-dasharray:none;stroke-opacity:1;paint-order:normal" d="m 265.57326,68.127307 8.28837,5.87093 13.12325,-10.70582 z" id="path1182"></path><path style="fill:none;stroke:url(#linearGradient8807);stroke-width:1.424;stroke-linejoin:round;stroke-dasharray:none;stroke-opacity:1;paint-order:normal" d="m 273.86162,73.998237 -15.19534,18.64883 -7.94302,-8.63372 z" id="path1184"></path><path style="fill:none;stroke:url(#linearGradient8809);stroke-width:1.424;stroke-linejoin:round;stroke-dasharray:none;stroke-opacity:1;paint-order:normal" d="m 265.57326,68.127307 -14.85,15.88604 v 0" id="path1186"></path><path style="fill:none;stroke:url(#linearGradient8811);stroke-width:1.424;stroke-linejoin:round;stroke-dasharray:none;stroke-opacity:1;paint-order:normal" d="m 258.66628,92.647067 8.92285,22.815523 18.10672,-22.264563 z" id="path1188"></path><path style="fill:none;stroke:url(#linearGradient8813);stroke-width:1.424;stroke-linejoin:round;stroke-dasharray:none;stroke-opacity:1;paint-order:normal" d="m 273.86162,73.998237 11.83423,19.19979 14.88775,-19.04559 z" id="path1190"></path><path style="fill:none;stroke:url(#linearGradient8815);stroke-width:1.424;stroke-linejoin:round;stroke-dasharray:none;stroke-opacity:1;paint-order:normal" d="m 286.98488,63.292417 13.59872,10.86002 8.18155,-6.64792 z" id="path1192"></path><path style="fill:none;stroke:url(#linearGradient8817);stroke-width:1.424;stroke-linejoin:round;stroke-dasharray:none;stroke-opacity:1;paint-order:normal" d="m 274.56864,140.00725 26.01496,2.95073 -5.09671,-22.26457 -20.91825,19.58209 -6.97951,-24.81291 28.16601,4.96258 -10.05929,-27.227143 26.02003,5.36495 -11.13228,-24.41054 21.05744,8.58393 -12.87589,-15.23185" id="path1194"></path><path style="fill:none;stroke:url(#linearGradient8819);stroke-width:1.424;stroke-linejoin:round;stroke-dasharray:none;stroke-opacity:1;paint-order:normal" d="m 295.48689,120.69341 16.22899,-22.130433 9.92516,-15.82661 3.3531,-4.29197 -16.22899,-10.93988" id="path1196"></path><path style="fill:none;stroke:url(#linearGradient8821);stroke-width:1.424;stroke-linejoin:round;stroke-dasharray:none;stroke-opacity:1;paint-order:normal" d="m 295.75514,120.42517 23.33755,6.43794 -7.37681,-28.300133 18.24084,10.059293 -10.99816,18.37497" id="path1198"></path><path style="fill:none;stroke:url(#linearGradient8823);stroke-width:1.424;stroke-linejoin:round;stroke-dasharray:none;stroke-opacity:1;paint-order:normal" d="m 321.64104,82.736367 11.53465,12.05593 -8.18155,-16.3479" id="path1200"></path><path style="fill:none;stroke:url(#linearGradient8825);stroke-width:1.424;stroke-linecap:round;stroke-linejoin:round;stroke-dasharray:none;stroke-opacity:1;paint-order:normal" d="m 321.64104,82.736367 8.31568,25.885903 3.21897,-13.829973 2.68248,20.804413 -5.90145,-6.97444 -1.60948,24.54467 7.51093,-17.57023 -5.49908,18.77734 -2.01185,-1.20711" id="path1202"></path><path style="fill:none;stroke:url(#linearGradient8827);stroke-width:1.424;stroke-linejoin:round;stroke-dasharray:none;stroke-opacity:1;paint-order:normal" d="m 330.35909,134.37405 -11.53465,14.21713 9.5228,-15.42424 z" id="path1204"></path><path style="fill:none;stroke:url(#linearGradient8829);stroke-width:1.424;stroke-linejoin:round;stroke-dasharray:none;stroke-opacity:1;paint-order:normal" d="m 318.82444,148.59118 -20.18819,9.52279 14.01849,-8.9482 6.1697,-0.57459" id="path1206"></path><path style="fill:none;stroke:url(#linearGradient8831);stroke-width:1.424;stroke-linejoin:round;stroke-dasharray:none;stroke-opacity:1;paint-order:normal" d="m 328.34724,133.16694 -15.6925,15.99883 6.30382,-22.16853 z" id="path1208"></path><path style="fill:none;stroke:url(#linearGradient8833);stroke-width:1.424;stroke-linejoin:round;stroke-dasharray:none;stroke-opacity:1;paint-order:normal" d="m 318.95856,126.99724 -18.37496,15.96074 12.07114,6.20779" id="path1210"></path><path style="fill:none;stroke:url(#linearGradient8835);stroke-width:1.424;stroke-linejoin:round;stroke-dasharray:none;stroke-opacity:1;paint-order:normal" d="m 300.5836,142.95798 -11.87196,12.60764 23.9431,-6.39985" id="path1212"></path><path style="fill:none;stroke:url(#linearGradient8837);stroke-width:1.424;stroke-linejoin:round;stroke-dasharray:none;stroke-opacity:1;paint-order:normal" d="m 288.71164,155.56562 9.92461,2.54835" id="path1214"></path><path style="fill:none;stroke:url(#linearGradient8839);stroke-width:1.424;stroke-linejoin:round;stroke-dasharray:none;stroke-opacity:1;paint-order:normal" d="m 298.63625,158.11397 -19.91484,0.13412 9.99023,-2.68247 -14.143,-15.29012 -8.25037,10.72991 22.39337,4.56021" id="path1216"></path><path style="fill:none;stroke:url(#linearGradient8841);stroke-width:1.424;stroke-linejoin:round;stroke-dasharray:none;stroke-opacity:1;paint-order:normal" d="m 266.31827,151.00541 12.40314,7.24268 -16.84556,-7.37681 z" id="path1218"></path><path style="fill:none;stroke:url(#linearGradient8843);stroke-width:1.424;stroke-linejoin:round;stroke-dasharray:none;stroke-opacity:1;paint-order:normal" d="m 261.87585,150.87128 -11.72282,-10.99815 16.16524,11.13228 -12.94627,-20.38683 -3.35309,9.25455" id="path1220"></path><path style="fill:none;stroke:url(#linearGradient8845);stroke-width:1.424;stroke-linejoin:round;stroke-dasharray:none;stroke-opacity:1;paint-order:normal" d="m 274.56864,140.2755 -21.19664,-9.65692 14.21713,-15.15599 -21.99631,-7.10857 7.77918,22.26456" id="path1222"></path><path style="fill:none;stroke:url(#linearGradient8847);stroke-width:1.424;stroke-linejoin:round;stroke-dasharray:none;stroke-opacity:1;paint-order:normal" d="m 253.372,130.61858 -12.74176,-9.38585 9.52279,18.6404" id="path1224"></path><path style="fill:none;stroke:url(#linearGradient8849);stroke-width:1.424;stroke-linejoin:round;stroke-dasharray:none;stroke-opacity:1;paint-order:normal" d="m 240.63024,121.23273 -0.13413,-19.98727 5.09671,7.10856 -4.96258,12.87871" id="path1226"></path><path style="fill:none;stroke:url(#linearGradient8851);stroke-width:1.424;stroke-linejoin:round;stroke-dasharray:none;stroke-opacity:1;paint-order:normal" d="m 258.66628,92.647067 -13.07346,15.706953 5.13044,-24.340673 -10.22715,17.232113 6.1247,-17.645063 4.10245,0.41295" id="path1228"></path><path style="fill:none;stroke:url(#linearGradient8853);stroke-width:1.424;stroke-linejoin:round;stroke-dasharray:none;stroke-opacity:1;paint-order:normal" d="m 246.62081,83.600397 12.74643,-12.93518 -8.64398,13.34813" id="path1230"></path><path style="fill:none;stroke:url(#linearGradient8855);stroke-width:1.424;stroke-linejoin:round;stroke-dasharray:none;stroke-opacity:1;paint-order:normal" d="m 259.36724,70.665217 6.20602,-2.53791 11.40454,-5.7303 10.00708,-0.16292 8.52773,0.16873 13.25254,5.1017" id="path1232"></path></g></g><circle style="fill:none;stroke:url(#linearGradient2518);stroke-width:3.70871;stroke-dasharray:none;stroke-opacity:1" id="path277" cx="101.68587" cy="99.075058" r="68.005463"></circle></g></svg>